<svg id="Groupe_30" data-name="Groupe 30" xmlns="http://www.w3.org/2000/svg" xmlns:xlink="http://www.w3.org/1999/xlink" width="260.159" height="67.316" viewBox="0 0 260.159 67.316">
  <defs>
    <clipPath id="clip-path">
      <rect id="Rectangle_14" data-name="Rectangle 14" width="260.159" height="67.316" fill="#fff"/>
    </clipPath>
  </defs>
  <g id="Groupe_29" data-name="Groupe 29" clip-path="url(#clip-path)">
    <path id="Tracé_21" data-name="Tracé 21" d="M43.789,62.424a4.633,4.633,0,0,1-4.428-5.988l5.289-17.25a8.22,8.22,0,0,0-7.859-10.63,8.272,8.272,0,0,0-7.877,5.868L24.566,48.983a4.63,4.63,0,0,1-4.436,3.305H4.63a4.63,4.63,0,0,1,0-9.26H16.681l3.36-11.253A17.589,17.589,0,0,1,36.79,19.3,17.48,17.48,0,0,1,53.5,41.9L48.214,59.15a4.632,4.632,0,0,1-4.425,3.274" transform="translate(0 -14.877)" fill="#fff"/>
    <path id="Tracé_22" data-name="Tracé 22" d="M131.189,122.082a17.48,17.48,0,0,1-16.712-22.6l5.289-17.25a4.63,4.63,0,0,1,8.853,2.714l-5.288,17.251a8.22,8.22,0,0,0,7.859,10.63,8.272,8.272,0,0,0,7.877-5.869L143.413,92.4a4.63,4.63,0,0,1,4.436-3.305h15.5a4.63,4.63,0,0,1,0,9.26H151.3l-3.36,11.253a17.59,17.59,0,0,1-16.749,12.479" transform="translate(-87.66 -60.875)" fill="#fff"/>
    <path id="Tracé_23" data-name="Tracé 23" d="M431.65,155.036V154.5a3.458,3.458,0,0,1,6.91,0v.531c0,4.452,3.256,5.648,6.578,5.648h9.3a3.389,3.389,0,0,1,0,6.777h-9.3c-7.375,0-13.489-4.053-13.489-12.426" transform="translate(-332.806 -116.563)" fill="#fff"/>
    <path id="Tracé_24" data-name="Tracé 24" d="M445.138,65.58h9.3a3.389,3.389,0,0,1,0,6.777h-9.3c-3.323,0-6.578,1.2-6.578,5.648v.531a3.458,3.458,0,0,1-6.911,0v-.531c0-8.372,6.113-12.426,13.489-12.426" transform="translate(-332.805 -50.563)" fill="#fff"/>
    <path id="Tracé_25" data-name="Tracé 25" d="M589.938,65.579h10.831a3.458,3.458,0,0,1,0,6.911H590.2c-1.927,0-2.791.864-2.791,2.326a3.042,3.042,0,0,0,1.86,2.724l.6.332a3.479,3.479,0,0,1,1.993,3.123,3.288,3.288,0,0,1-3.322,3.322,4.349,4.349,0,0,1-2.193-.665l-.664-.4c-3.655-2.193-5.183-4.518-5.183-8.572,0-6.047,3.522-9.1,9.436-9.1m5.648,35.882H583.825a3.458,3.458,0,0,1,0-6.911h11.5c1.927,0,2.791-.864,2.791-2.326A3.042,3.042,0,0,0,596.25,89.5l-.6-.333a3.478,3.478,0,0,1-1.994-3.123,3.289,3.289,0,0,1,3.323-3.323,4.352,4.352,0,0,1,2.193.665l.664.4c3.721,2.259,5.183,4.519,5.183,8.572,0,6.047-3.522,9.1-9.436,9.1" transform="translate(-447.572 -50.562)" fill="#fff"/>
    <path id="Tracé_26" data-name="Tracé 26" d="M712.076,15.017h8.771a3.133,3.133,0,0,1,3.123,3.455v9.5a3.458,3.458,0,0,1-6.911,0V21.928h-4.983a3.284,3.284,0,0,1-3.323-3.455,3.284,3.284,0,0,1,3.323-3.455m4.983,28.971V37.875a3.458,3.458,0,0,1,6.911,0v6.113h4.984a3.458,3.458,0,0,1,0,6.91H712.076a3.284,3.284,0,0,1-3.323-3.455,3.133,3.133,0,0,1,3.123-3.455Zm-1.4-39.271A4.515,4.515,0,0,1,720.448,0,4.567,4.567,0,0,1,725.3,4.718a4.675,4.675,0,0,1-4.851,4.85,4.622,4.622,0,0,1-4.784-4.85" transform="translate(-546.455)" fill="#fff"/>
    <path id="Tracé_27" data-name="Tracé 27" d="M833.616,78.006v.531a3.458,3.458,0,0,1-6.91,0v-.531c0-8.372,6.18-12.426,13.622-12.426h5.316a3.455,3.455,0,1,1,0,6.911h-5.316c-3.322,0-6.712,1.2-6.712,5.515m12.027,16.546a3.455,3.455,0,1,1,0,6.91h-5.316c-7.442,0-13.622-4.053-13.622-12.426V88.5a3.458,3.458,0,0,1,6.91,0v.531c0,4.319,3.389,5.515,6.712,5.515Z" transform="translate(-637.398 -50.563)" fill="#fff"/>
    <path id="Tracé_28" data-name="Tracé 28" d="M978.425,69.034a3.279,3.279,0,0,1-3.455,3.455h-.279c-6.711,0-7.31,1.86-7.31,7.243V98.138a3.458,3.458,0,0,1-6.911,0v-19.4c0-9.834,3.854-13.157,13.223-13.157h1.276a3.279,3.279,0,0,1,3.455,3.455" transform="translate(-740.531 -50.562)" fill="#fff"/>
    <path id="Tracé_29" data-name="Tracé 29" d="M482.849,135.749H471.817a3.458,3.458,0,0,1,0-6.911h11.032a3.458,3.458,0,0,1,0,6.911" transform="translate(-361.214 -99.335)" fill="#fff"/>
    <path id="Tracé_30" data-name="Tracé 30" d="M1034.439,110.267a3.322,3.322,0,0,1,3.455,3.322v19a3.458,3.458,0,0,1-6.91,0v-19a3.322,3.322,0,0,1,3.455-3.322" transform="translate(-794.898 -85.017)" fill="#fff"/>
    <path id="Tracé_31" data-name="Tracé 31" d="M1057.122,65.579h.978c9.369,0,13.223,3.322,13.223,13.157v19.4a3.458,3.458,0,0,1-6.91,0V79.732c0-5.382-.6-7.243-7.31-7.243h.02a3.463,3.463,0,1,1,0-6.911" transform="translate(-812.209 -50.562)" fill="#fff"/>
    <path id="Tracé_32" data-name="Tracé 32" d="M439,254.832h-6.587v-.808H439Zm-3.731-.808h.862v9h-.862Z" transform="translate(-333.395 -195.855)" fill="#fff"/>
    <path id="Tracé_33" data-name="Tracé 33" d="M468.665,261.207h-.835V251.67h.835v5.092h-.35a2.406,2.406,0,0,1,.485-1.138,2.79,2.79,0,0,1,1-.8,3.233,3.233,0,0,1,2.93.114,2.664,2.664,0,0,1,1.017,1.138,3.907,3.907,0,0,1,.35,1.711v3.421h-.835v-3.354a3.125,3.125,0,0,0-.25-1.26,2.161,2.161,0,0,0-.748-.923,2.106,2.106,0,0,0-1.239-.35,2.242,2.242,0,0,0-1.213.337,2.326,2.326,0,0,0-.842.923,2.877,2.877,0,0,0-.3,1.34Z" transform="translate(-360.701 -194.04)" fill="#fff"/>
    <path id="Tracé_34" data-name="Tracé 34" d="M505.906,270.913a3.338,3.338,0,0,1-1.724-.451,3.252,3.252,0,0,1-1.206-1.226,3.481,3.481,0,0,1-.438-1.745,3.656,3.656,0,0,1,.4-1.717,3.154,3.154,0,0,1,1.131-1.233,3.1,3.1,0,0,1,1.684-.458,3.178,3.178,0,0,1,1.657.417,2.911,2.911,0,0,1,1.091,1.145,3.447,3.447,0,0,1,.391,1.657v.5h-5.752l.215-.579a2.806,2.806,0,0,0,.242,1.462,2.472,2.472,0,0,0,2.3,1.435,2.831,2.831,0,0,0,1.246-.276,2.109,2.109,0,0,0,.923-.9l.647.35a2.983,2.983,0,0,1-1.179,1.212,3.339,3.339,0,0,1-1.637.4m-2.519-3.785h4.674a2.367,2.367,0,0,0-.317-1.192,2.1,2.1,0,0,0-.815-.781,2.43,2.43,0,0,0-1.172-.276,2.322,2.322,0,0,0-1.186.3,2.233,2.233,0,0,0-.815.808,2.791,2.791,0,0,0-.37,1.145" transform="translate(-387.461 -203.61)" fill="#fff"/>
    <path id="Tracé_35" data-name="Tracé 35" d="M555.853,253.733a.6.6,0,0,1-.3-.081.585.585,0,0,1-.222-.222.662.662,0,0,1,0-.633.584.584,0,0,1,.222-.222.6.6,0,0,1,.3-.081.558.558,0,0,1,.3.081.643.643,0,0,1,0,1.078.558.558,0,0,1-.3.081m-.417,1.576h.835v6.534h-.835Z" transform="translate(-428.1 -194.674)" fill="#fff"/>
    <path id="Tracé_36" data-name="Tracé 36" d="M573.417,264.936a2.074,2.074,0,0,0-1.246.364,2.3,2.3,0,0,0-.768.956,3.153,3.153,0,0,0-.263,1.293v3.273H570.3v-3.341a3.8,3.8,0,0,1,.371-1.7,2.925,2.925,0,0,1,1.064-1.2,3.044,3.044,0,0,1,1.677-.445,3.2,3.2,0,0,1,1.717.438,2.9,2.9,0,0,1,1.085,1.192,3.749,3.749,0,0,1,.377,1.7v3.354h-.835v-3.26a3.138,3.138,0,0,0-.269-1.3,2.311,2.311,0,0,0-.788-.963,2.184,2.184,0,0,0-1.286-.364" transform="translate(-439.71 -203.655)" fill="#fff"/>
    <path id="Tracé_37" data-name="Tracé 37" d="M607.963,259.692h-4.89v-.754h4.89Zm-1.307,5.927a2.326,2.326,0,0,1-1.179-.283,1.884,1.884,0,0,1-.754-.8,2.633,2.633,0,0,1-.263-1.206V257.2h.835v6.1a1.56,1.56,0,0,0,.391,1.132,1.376,1.376,0,0,0,1.037.4,1.909,1.909,0,0,0,.674-.121,1.951,1.951,0,0,0,.566-.324v.808a2.146,2.146,0,0,1-.6.3,2.229,2.229,0,0,1-.707.114" transform="translate(-464.975 -198.304)" fill="#fff"/>
    <path id="Tracé_38" data-name="Tracé 38" d="M633.618,270.913a3.338,3.338,0,0,1-1.724-.451,3.253,3.253,0,0,1-1.206-1.226,3.486,3.486,0,0,1-.438-1.745,3.656,3.656,0,0,1,.4-1.717,3.15,3.15,0,0,1,1.131-1.233,3.093,3.093,0,0,1,1.684-.458,3.181,3.181,0,0,1,1.657.417,2.916,2.916,0,0,1,1.091,1.145,3.446,3.446,0,0,1,.391,1.657v.5h-5.752l.216-.579a2.805,2.805,0,0,0,.242,1.462,2.472,2.472,0,0,0,2.3,1.435,2.831,2.831,0,0,0,1.246-.276,2.109,2.109,0,0,0,.923-.9l.647.35a2.983,2.983,0,0,1-1.179,1.212,3.339,3.339,0,0,1-1.637.4m-2.519-3.785h4.675a2.364,2.364,0,0,0-.317-1.192,2.1,2.1,0,0,0-.815-.781,2.431,2.431,0,0,0-1.172-.276,2.322,2.322,0,0,0-1.186.3,2.232,2.232,0,0,0-.815.808,2.794,2.794,0,0,0-.37,1.145" transform="translate(-485.928 -203.61)" fill="#fff"/>
    <path id="Tracé_39" data-name="Tracé 39" d="M668.835,264.936a2.074,2.074,0,0,0-1.246.364,2.3,2.3,0,0,0-.768.956,3.151,3.151,0,0,0-.263,1.293v3.273h-.835v-3.341a3.8,3.8,0,0,1,.371-1.7,2.924,2.924,0,0,1,1.064-1.2,3.044,3.044,0,0,1,1.677-.445,3.2,3.2,0,0,1,1.717.438,2.9,2.9,0,0,1,1.085,1.192,3.751,3.751,0,0,1,.377,1.7v3.354h-.835v-3.26a3.137,3.137,0,0,0-.269-1.3,2.307,2.307,0,0,0-.788-.963,2.184,2.184,0,0,0-1.286-.364" transform="translate(-513.278 -203.655)" fill="#fff"/>
    <path id="Tracé_40" data-name="Tracé 40" d="M703.7,271.126a3.065,3.065,0,0,1-1.482-.357A2.434,2.434,0,0,1,701.2,269.7l.687-.377a1.765,1.765,0,0,0,.748.795,2.273,2.273,0,0,0,1.044.229,2.418,2.418,0,0,0,.808-.128,1.327,1.327,0,0,0,.579-.377.924.924,0,0,0,.216-.627.728.728,0,0,0-.283-.626,2.1,2.1,0,0,0-.72-.323q-.438-.114-.936-.222a5.044,5.044,0,0,1-.936-.3,1.845,1.845,0,0,1-.72-.539,1.5,1.5,0,0,1-.283-.97,1.608,1.608,0,0,1,.3-.97,2.031,2.031,0,0,1,.815-.653,2.673,2.673,0,0,1,1.132-.236,3.032,3.032,0,0,1,.976.148,2.445,2.445,0,0,1,.775.424,2.275,2.275,0,0,1,.552.667l-.687.391a1.363,1.363,0,0,0-.673-.674,2.386,2.386,0,0,0-.93-.175,1.854,1.854,0,0,0-.687.128,1.373,1.373,0,0,0-.532.364.834.834,0,0,0-.208.573.7.7,0,0,0,.283.6,2.177,2.177,0,0,0,.721.33q.437.121.936.229a5.08,5.08,0,0,1,.936.3,1.826,1.826,0,0,1,.721.546,1.534,1.534,0,0,1,.283.977,1.635,1.635,0,0,1-.33,1.024,2.144,2.144,0,0,1-.883.667,3.025,3.025,0,0,1-1.2.236" transform="translate(-540.628 -203.837)" fill="#fff"/>
    <path id="Tracé_41" data-name="Tracé 41" d="M731.628,253.733a.6.6,0,0,1-.3-.081.586.586,0,0,1-.222-.222.662.662,0,0,1,0-.633.584.584,0,0,1,.222-.222.6.6,0,0,1,.3-.081.558.558,0,0,1,.3.081.643.643,0,0,1,0,1.078.558.558,0,0,1-.3.081m-.418,1.576h.835v6.534h-.835Z" transform="translate(-563.625 -194.674)" fill="#fff"/>
    <path id="Tracé_42" data-name="Tracé 42" d="M744.454,270.663l-2.2-5.873h.889l2.088,5.658a.408.408,0,0,0,.121.175.285.285,0,0,0,.189.067.279.279,0,0,0,.2-.067.444.444,0,0,0,.114-.175l2.088-5.658h.889l-2.209,5.873a1.242,1.242,0,0,1-.431.606,1.087,1.087,0,0,1-.647.2,1.126,1.126,0,0,1-.647-.2,1.2,1.2,0,0,1-.444-.606" transform="translate(-572.288 -204.155)" fill="#fff"/>
    <path id="Tracé_43" data-name="Tracé 43" d="M777.51,270.913a3.338,3.338,0,0,1-1.724-.451,3.255,3.255,0,0,1-1.206-1.226,3.485,3.485,0,0,1-.438-1.745,3.653,3.653,0,0,1,.4-1.717,3.154,3.154,0,0,1,1.131-1.233,3.1,3.1,0,0,1,1.684-.458,3.179,3.179,0,0,1,1.657.417,2.912,2.912,0,0,1,1.091,1.145,3.447,3.447,0,0,1,.391,1.657v.5h-5.752l.215-.579a2.809,2.809,0,0,0,.243,1.462,2.472,2.472,0,0,0,2.3,1.435,2.831,2.831,0,0,0,1.246-.276,2.11,2.11,0,0,0,.923-.9l.646.35a2.985,2.985,0,0,1-1.179,1.212,3.341,3.341,0,0,1-1.637.4m-2.519-3.785h4.675a2.367,2.367,0,0,0-.317-1.192,2.094,2.094,0,0,0-.815-.781,2.43,2.43,0,0,0-1.172-.276,2.322,2.322,0,0,0-1.185.3,2.232,2.232,0,0,0-.815.808,2.8,2.8,0,0,0-.371,1.145" transform="translate(-596.87 -203.61)" fill="#fff"/>
    <path id="Tracé_44" data-name="Tracé 44" d="M827.766,270.957a3.186,3.186,0,0,1-1.28-.262,3.351,3.351,0,0,1-1.064-.728,3.445,3.445,0,0,1-.983-2.418,3.334,3.334,0,0,1,.262-1.327,3.553,3.553,0,0,1,.721-1.084,3.292,3.292,0,0,1,1.064-.734,3.184,3.184,0,0,1,1.28-.263,3.415,3.415,0,0,1,1.617.391,2.926,2.926,0,0,1,1.2,1.226l-.7.4a2.259,2.259,0,0,0-.9-.93,2.529,2.529,0,0,0-1.213-.3,2.278,2.278,0,0,0-1.239.357,2.711,2.711,0,0,0-.909.95,2.658,2.658,0,0,0,0,2.613,2.7,2.7,0,0,0,.909.95,2.275,2.275,0,0,0,1.239.357,2.521,2.521,0,0,0,1.213-.3,2.275,2.275,0,0,0,.9-.916l.7.391a2.987,2.987,0,0,1-1.2,1.219,3.37,3.37,0,0,1-1.617.4" transform="translate(-635.65 -203.655)" fill="#fff"/>
    <path id="Tracé_45" data-name="Tracé 45" d="M859.406,270.958a3.322,3.322,0,0,1-1.745-.465,3.5,3.5,0,0,1-1.233-1.239,3.311,3.311,0,0,1-.458-1.718,3.276,3.276,0,0,1,.458-1.711,3.449,3.449,0,0,1,1.239-1.226,3.55,3.55,0,0,1,3.489,0,3.413,3.413,0,0,1,1.219,1.233,3.469,3.469,0,0,1,0,3.422,3.448,3.448,0,0,1-1.226,1.239,3.322,3.322,0,0,1-1.744.465m0-.795a2.475,2.475,0,0,0,1.313-.357,2.652,2.652,0,0,0,.93-.95,2.657,2.657,0,0,0,0-2.614,2.655,2.655,0,0,0-.93-.95,2.6,2.6,0,0,0-2.627,0,2.708,2.708,0,0,0-.936.95,2.611,2.611,0,0,0,0,2.614,2.706,2.706,0,0,0,.936.95,2.477,2.477,0,0,0,1.314.357" transform="translate(-659.961 -203.656)" fill="#fff"/>
    <path id="Tracé_46" data-name="Tracé 46" d="M896.379,264.936a2.074,2.074,0,0,0-1.246.364,2.3,2.3,0,0,0-.768.956,3.151,3.151,0,0,0-.263,1.293v3.273h-.835v-3.341a3.8,3.8,0,0,1,.37-1.7,2.927,2.927,0,0,1,1.064-1.2,3.044,3.044,0,0,1,1.677-.445,3.2,3.2,0,0,1,1.717.438,2.893,2.893,0,0,1,1.085,1.192,3.745,3.745,0,0,1,.377,1.7v3.354h-.836v-3.26a3.138,3.138,0,0,0-.269-1.3,2.309,2.309,0,0,0-.788-.963,2.184,2.184,0,0,0-1.286-.364" transform="translate(-688.717 -203.655)" fill="#fff"/>
    <path id="Tracé_47" data-name="Tracé 47" d="M933.265,264.936a2.074,2.074,0,0,0-1.246.364,2.3,2.3,0,0,0-.768.956,3.159,3.159,0,0,0-.262,1.293v3.273h-.835v-3.341a3.8,3.8,0,0,1,.37-1.7,2.924,2.924,0,0,1,1.065-1.2,3.042,3.042,0,0,1,1.677-.445,3.2,3.2,0,0,1,1.717.438,2.9,2.9,0,0,1,1.084,1.192,3.749,3.749,0,0,1,.377,1.7v3.354h-.835v-3.26a3.138,3.138,0,0,0-.269-1.3,2.308,2.308,0,0,0-.788-.963,2.183,2.183,0,0,0-1.286-.364" transform="translate(-717.156 -203.655)" fill="#fff"/>
    <path id="Tracé_48" data-name="Tracé 48" d="M968.347,270.913a3.338,3.338,0,0,1-1.724-.451,3.252,3.252,0,0,1-1.206-1.226,3.481,3.481,0,0,1-.438-1.745,3.655,3.655,0,0,1,.4-1.717,3.15,3.15,0,0,1,1.131-1.233,3.094,3.094,0,0,1,1.684-.458,3.178,3.178,0,0,1,1.657.417,2.911,2.911,0,0,1,1.091,1.145,3.446,3.446,0,0,1,.391,1.657v.5h-5.752l.216-.579a2.81,2.81,0,0,0,.242,1.462,2.472,2.472,0,0,0,2.3,1.435,2.833,2.833,0,0,0,1.246-.276,2.112,2.112,0,0,0,.923-.9l.646.35a2.982,2.982,0,0,1-1.178,1.212,3.34,3.34,0,0,1-1.637.4m-2.519-3.785H970.5a2.36,2.36,0,0,0-.317-1.192,2.094,2.094,0,0,0-.815-.781,2.429,2.429,0,0,0-1.172-.276,2.322,2.322,0,0,0-1.186.3,2.232,2.232,0,0,0-.815.808,2.794,2.794,0,0,0-.371,1.145" transform="translate(-744.007 -203.61)" fill="#fff"/>
    <path id="Tracé_49" data-name="Tracé 49" d="M1001.72,270.957a3.189,3.189,0,0,1-1.28-.262,3.35,3.35,0,0,1-1.064-.728,3.447,3.447,0,0,1-.983-2.418,3.33,3.33,0,0,1,.263-1.327,3.549,3.549,0,0,1,.721-1.084,3.292,3.292,0,0,1,1.064-.734,3.186,3.186,0,0,1,1.28-.263,3.417,3.417,0,0,1,1.617.391,2.929,2.929,0,0,1,1.2,1.226l-.7.4a2.255,2.255,0,0,0-.9-.93,2.53,2.53,0,0,0-1.213-.3,2.28,2.28,0,0,0-1.239.357,2.712,2.712,0,0,0-.909.95,2.655,2.655,0,0,0,0,2.613,2.7,2.7,0,0,0,.909.95,2.277,2.277,0,0,0,1.239.357,2.522,2.522,0,0,0,1.213-.3,2.27,2.27,0,0,0,.9-.916l.7.391a2.99,2.99,0,0,1-1.2,1.219,3.371,3.371,0,0,1-1.617.4" transform="translate(-769.77 -203.655)" fill="#fff"/>
    <path id="Tracé_50" data-name="Tracé 50" d="M1032.755,259.692h-4.89v-.754h4.89Zm-1.307,5.927a2.325,2.325,0,0,1-1.178-.283,1.883,1.883,0,0,1-.754-.8,2.634,2.634,0,0,1-.263-1.206V257.2h.836v6.1a1.561,1.561,0,0,0,.39,1.132,1.377,1.377,0,0,0,1.037.4,1.906,1.906,0,0,0,.673-.121,1.944,1.944,0,0,0,.566-.324v.808a2.14,2.14,0,0,1-.6.3,2.228,2.228,0,0,1-.707.114" transform="translate(-792.493 -198.304)" fill="#fff"/>
    <path id="Tracé_51" data-name="Tracé 51" d="M1058.944,253.733a.6.6,0,0,1-.3-.081.586.586,0,0,1-.223-.222.661.661,0,0,1,0-.633.585.585,0,0,1,.223-.222.6.6,0,0,1,.3-.081.556.556,0,0,1,.3.081.643.643,0,0,1,0,1.078.556.556,0,0,1-.3.081m-.417,1.576h.835v6.534h-.835Z" transform="translate(-815.988 -194.674)" fill="#fff"/>
    <path id="Tracé_52" data-name="Tracé 52" d="M1074.773,270.958a3.319,3.319,0,0,1-1.744-.465,3.493,3.493,0,0,1-1.233-1.239,3.306,3.306,0,0,1-.458-1.718,3.271,3.271,0,0,1,.458-1.711,3.445,3.445,0,0,1,1.239-1.226,3.55,3.55,0,0,1,3.489,0,3.416,3.416,0,0,1,1.22,1.233,3.471,3.471,0,0,1,0,3.422,3.451,3.451,0,0,1-1.226,1.239,3.324,3.324,0,0,1-1.745.465m0-.795a2.475,2.475,0,0,0,1.313-.357,2.651,2.651,0,0,0,.93-.95,2.656,2.656,0,0,0,0-2.614,2.653,2.653,0,0,0-.93-.95,2.6,2.6,0,0,0-2.626,0,2.717,2.717,0,0,0-.937.95,2.612,2.612,0,0,0,0,2.614,2.714,2.714,0,0,0,.937.95,2.477,2.477,0,0,0,1.313.357" transform="translate(-826.011 -203.656)" fill="#fff"/>
    <path id="Tracé_53" data-name="Tracé 53" d="M1111.747,264.936a2.077,2.077,0,0,0-1.247.364,2.3,2.3,0,0,0-.767.956,3.149,3.149,0,0,0-.263,1.293v3.273h-.835v-3.341a3.8,3.8,0,0,1,.371-1.7,2.923,2.923,0,0,1,1.064-1.2,3.046,3.046,0,0,1,1.677-.445,3.2,3.2,0,0,1,1.718.438,2.9,2.9,0,0,1,1.084,1.192,3.761,3.761,0,0,1,.377,1.7v3.354h-.836v-3.26a3.14,3.14,0,0,0-.269-1.3,2.308,2.308,0,0,0-.789-.963,2.181,2.181,0,0,0-1.286-.364" transform="translate(-854.767 -203.655)" fill="#fff"/>
  </g>
</svg>
